<svg fill="none" height="152" viewBox="0 0 210 152" width="210" xmlns="http://www.w3.org/2000/svg" xmlns:xlink="http://www.w3.org/1999/xlink"><filter id="a" color-interpolation-filters="sRGB" filterUnits="userSpaceOnUse" height="309" width="196" x="8" y="-19"><feFlood flood-opacity="0" result="BackgroundImageFix"/><feColorMatrix in="SourceAlpha" result="hardAlpha" type="matrix" values="0 0 0 0 0 0 0 0 0 0 0 0 0 0 0 0 0 0 127 0"/><feOffset dy="4"/><feGaussianBlur stdDeviation="22"/><feComposite in2="hardAlpha" operator="out"/><feColorMatrix type="matrix" values="0 0 0 0 0 0 0 0 0 0 0 0 0 0 0 0 0 0 0.08 0"/><feBlend in2="BackgroundImageFix" mode="normal" result="effect1_dropShadow_28_172"/><feBlend in="SourceGraphic" in2="effect1_dropShadow_28_172" mode="normal" result="shape"/></filter><linearGradient id="b" gradientUnits="userSpaceOnUse" x1="96.2822" x2="115.26" y1="91.06" y2="91.06"><stop offset="0" stop-color="#8364ff"/><stop offset=".469702" stop-color="#4facbe"/><stop offset="1" stop-color="#ca99e7"/></linearGradient><clipPath id="c"><rect height="152" rx="8" width="210"/></clipPath><g clip-path="url(#c)"><g filter="url(#a)"><rect fill="#fff" height="221" rx="16" width="108" x="52" y="21"/></g><rect fill="#f4f4f4" height="6" rx="3" width="26" x="92" y="29"/><rect fill="#eee" height="85" rx="3" width="85" x="63" y="51"/><path d="m105.522 103.26c-.306 0-.566-.221-.64-.519-.521-2.09-2.051-4.5834-4.77-6.6231-1.2742-.961-2.5678-1.6272-3.8464-1.9814-.3039-.0842-.5256-.3539-.5256-.6693 0-.3086.2123-.575.5087-.661 2.6934-.7824 5.2913-2.6381 6.9893-5.1012.798-1.1522 1.344-2.2851 1.64-3.4492.075-.297.336-.5158.642-.5158.311 0 .574.2253.649.5275.595 2.4226 2.488 5.016 4.999 6.7925 1.159.8246 2.357 1.4147 3.577 1.7532.298.0828.515.3486.515.6585 0 .3125-.22.5795-.521.6647-2.694.7637-5.678 3.1294-7.206 5.5398-.684 1.0918-1.135 2.1108-1.367 3.0578-.073.301-.334.526-.644.526z" fill="url(#b)"/></g></svg>