<svg fill="none" height="152" viewBox="0 0 210 152" width="210" xmlns="http://www.w3.org/2000/svg" xmlns:xlink="http://www.w3.org/1999/xlink"><filter id="a" color-interpolation-filters="sRGB" filterUnits="userSpaceOnUse" height="309" width="239" x="-14" y="-20"><feFlood flood-opacity="0" result="BackgroundImageFix"/><feColorMatrix in="SourceAlpha" result="hardAlpha" type="matrix" values="0 0 0 0 0 0 0 0 0 0 0 0 0 0 0 0 0 0 127 0"/><feOffset dy="4"/><feGaussianBlur stdDeviation="22"/><feComposite in2="hardAlpha" operator="out"/><feColorMatrix type="matrix" values="0 0 0 0 0 0 0 0 0 0 0 0 0 0 0 0 0 0 0.08 0"/><feBlend in2="BackgroundImageFix" mode="normal" result="effect1_dropShadow_28_102"/><feBlend in="SourceGraphic" in2="effect1_dropShadow_28_102" mode="normal" result="shape"/></filter><linearGradient id="b" gradientUnits="userSpaceOnUse" x1="96.2822" x2="115.26" y1="49.06" y2="49.06"><stop offset="0" stop-color="#8364ff"/><stop offset=".469702" stop-color="#4facbe"/><stop offset="1" stop-color="#ca99e7"/></linearGradient><clipPath id="c"><rect height="152" rx="8" width="210"/></clipPath><g clip-path="url(#c)"><g filter="url(#a)"><rect fill="#fff" height="221" rx="8" width="151" x="30" y="20"/></g><g fill="#f0f0f0"><rect height="6" rx="2" width="54" x="114" y="65"/><rect height="6" rx="2" width="33" x="114" y="76"/><rect height="6" rx="2" width="41" x="114" y="55"/></g><path d="m30 28c0-4.4183 3.5817-8 8-8h135c4.418 0 8 3.5817 8 8v55h-151z" fill="#f6f6f6"/><circle cx="54" cy="83" fill="#d9d9d9" r="11"/><path d="m104.992 61.26c-.382-2.1858-1.932-4.9308-4.88-7.1421-1.4491-1.0929-2.9233-1.8046-4.372-2.1096v-1.0675c2.8721-.6862 5.693-2.6179 7.498-5.2358.915-1.3217 1.499-2.6179 1.754-3.965h1.067c.432 2.5671 2.415 5.4137 5.109 7.32 1.322.9404 2.694 1.5758 4.092 1.8808v1.0675c-2.821.5846-6.1 3.1009-7.727 5.6679-.813 1.2963-1.296 2.4909-1.474 3.5838z" fill="url(#b)"/><rect fill="#f0f0f0" height="6" rx="2" width="41" x="44" y="105"/><rect fill="#f0f0f0" height="6" rx="2" width="54" x="44" y="115"/><rect fill="#f0f0f0" height="6" rx="2" width="33" x="44" y="125"/><rect fill="#dedede" height="3" rx="1.5" width="3" x="45" y="30"/><rect fill="#dedede" height="3" rx="1.5" width="3" x="51" y="30"/><rect fill="#dedede" height="3" rx="1.5" width="3" x="57" y="30"/></g></svg>