<svg fill="none" height="152" viewBox="0 0 210 152" width="210" xmlns="http://www.w3.org/2000/svg" xmlns:xlink="http://www.w3.org/1999/xlink"><filter id="a" color-interpolation-filters="sRGB" filterUnits="userSpaceOnUse" height="309" width="239" x="-14" y="-20"><feFlood flood-opacity="0" result="BackgroundImageFix"/><feColorMatrix in="SourceAlpha" result="hardAlpha" type="matrix" values="0 0 0 0 0 0 0 0 0 0 0 0 0 0 0 0 0 0 127 0"/><feOffset dy="4"/><feGaussianBlur stdDeviation="22"/><feComposite in2="hardAlpha" operator="out"/><feColorMatrix type="matrix" values="0 0 0 0 0 0 0 0 0 0 0 0 0 0 0 0 0 0 0.08 0"/><feBlend in2="BackgroundImageFix" mode="normal" result="effect1_dropShadow_28_145"/><feBlend in="SourceGraphic" in2="effect1_dropShadow_28_145" mode="normal" result="shape"/></filter><linearGradient id="b" gradientUnits="userSpaceOnUse" x1="137.782" x2="156.76" y1="61.06" y2="61.06"><stop offset="0" stop-color="#8364ff"/><stop offset=".469702" stop-color="#4facbe"/><stop offset="1" stop-color="#ca99e7"/></linearGradient><clipPath id="c"><path d="m0 8c0-4.41828 3.58172-8 8-8h194c4.418 0 8 3.58172 8 8v136c0 4.418-3.582 8-8 8h-194c-4.41828 0-8-3.582-8-8z"/></clipPath><g clip-path="url(#c)"><g filter="url(#a)"><rect fill="#fff" height="221" rx="8" width="151" x="30" y="20"/></g><g fill="#f0f0f0"><rect height="6" rx="2" width="54" x="45" y="71"/><rect height="6" rx="2" width="33" x="45" y="82"/><rect height="6" rx="2" width="41" x="45" y="61"/></g><rect fill="#eee" height="37" rx="3" width="44" x="125" y="45"/><path d="m147.022 73.26c-.306 0-.566-.2208-.64-.5185-.521-2.0902-2.051-4.5839-4.77-6.6236-1.274-.961-2.568-1.6272-3.846-1.9814-.304-.0842-.526-.3539-.526-.6693 0-.3086.212-.575.509-.661 2.693-.7824 5.291-2.6381 6.989-5.1012.798-1.1522 1.344-2.2851 1.64-3.4492.075-.297.336-.5158.642-.5158.311 0 .574.2253.649.5275.595 2.4226 2.488 5.016 4.999 6.7925 1.159.8246 2.357 1.4147 3.577 1.7532.298.0828.515.3486.515.6585 0 .3125-.22.5795-.521.6647-2.694.7637-5.678 3.1294-7.206 5.5398-.684 1.0914-1.135 2.1107-1.367 3.058-.073.3006-.334.5258-.644.5258z" fill="url(#b)"/><rect fill="#dedede" height="3" rx="1.5" width="3" x="38" y="32"/><rect fill="#dedede" height="3" rx="1.5" width="3" x="44" y="32"/><rect fill="#dedede" height="3" rx="1.5" width="3" x="50" y="32"/><rect fill="#f0f0f0" height="6" rx="2" width="74" x="45" y="98"/><rect fill="#f0f0f0" height="6" rx="2" width="49" x="45" y="109"/></g></svg>