<svg fill="none" height="152" viewBox="0 0 210 152" width="210" xmlns="http://www.w3.org/2000/svg" xmlns:xlink="http://www.w3.org/1999/xlink"><filter id="a" color-interpolation-filters="sRGB" filterUnits="userSpaceOnUse" height="309" width="239" x="-13" y="-20"><feFlood flood-opacity="0" result="BackgroundImageFix"/><feColorMatrix in="SourceAlpha" result="hardAlpha" type="matrix" values="0 0 0 0 0 0 0 0 0 0 0 0 0 0 0 0 0 0 127 0"/><feOffset dy="4"/><feGaussianBlur stdDeviation="22"/><feComposite in2="hardAlpha" operator="out"/><feColorMatrix type="matrix" values="0 0 0 0 0 0 0 0 0 0 0 0 0 0 0 0 0 0 0.08 0"/><feBlend in2="BackgroundImageFix" mode="normal" result="effect1_dropShadow_28_123"/><feBlend in="SourceGraphic" in2="effect1_dropShadow_28_123" mode="normal" result="shape"/></filter><linearGradient id="b" gradientUnits="userSpaceOnUse" x1="63.2822" x2="82.26" y1="66.06" y2="66.06"><stop offset="0" stop-color="#8364ff"/><stop offset=".469702" stop-color="#4facbe"/><stop offset="1" stop-color="#ca99e7"/></linearGradient><clipPath id="c"><rect height="152" rx="8" width="210"/></clipPath><g clip-path="url(#c)"><g filter="url(#a)"><rect fill="#fff" height="221" rx="8" width="151" x="31" y="20"/></g><g fill="#f0f0f0"><rect height="6" rx="2" width="54" x="114" y="65"/><rect height="6" rx="2" width="33" x="114" y="76"/><rect height="6" rx="2" width="41" x="114" y="55"/></g><rect fill="#eee" height="37" rx="3" width="57" x="44" y="50"/><path d="m72.5223 78.26c-.3067 0-.5665-.2208-.6406-.5185-.5204-2.0902-2.0505-4.5839-4.77-6.6236-1.2739-.961-2.5675-1.6272-3.8461-1.9814-.3039-.0842-.5256-.3539-.5256-.6693 0-.3086.2123-.575.5087-.661 2.6934-.7824 5.2913-2.6381 6.9892-5.1012.7977-1.1522 1.3442-2.2851 1.6397-3.4492.0754-.297.336-.5158.6425-.5158.3112 0 .5742.2253.6485.5275.5957 2.4226 2.4885 5.016 4.9993 6.7925 1.1589.8246 2.3569 1.4147 3.5769 1.7532.2986.0828.5152.3486.5152.6585 0 .3125-.2202.5795-.5209.6647-2.6942.7637-5.6783 3.1294-7.2058 5.5398-.6848 1.0914-1.1353 2.1107-1.3668 3.058-.0735.3006-.3347.5258-.6442.5258z" fill="url(#b)"/><rect fill="#f4f4f4" height="37" rx="3" width="57" x="44" y="97"/><rect fill="#f0f0f0" height="6" rx="2" width="41" x="114" y="102"/><rect fill="#f0f0f0" height="6" rx="2" width="54" x="114" y="112"/><rect fill="#f0f0f0" height="6" rx="2" width="33" x="114" y="123"/><rect fill="#dedede" height="3" rx="1.5" width="3" x="155" y="35"/><rect fill="#dedede" height="3" rx="1.5" width="3" x="161" y="35"/><rect fill="#dedede" height="3" rx="1.5" width="3" x="167" y="35"/></g></svg>