<svg width="110" height="35" viewBox="0 0 110 35" fill="none" xmlns="http://www.w3.org/2000/svg">
<g clip-path="url(#clip0_6130_667)">
<path d="M17.221 2.90387e-08C14.9596 -0.000131298 12.7202 0.44518 10.6309 1.31051C8.54154 2.17583 6.64311 3.44423 5.04397 5.04327C3.44484 6.64231 2.17634 8.54067 1.31089 10.63C0.445442 12.7193 -3.8132e-09 14.9586 0 17.22C0 21.787 1.81424 26.167 5.04362 29.3964C8.273 32.6258 12.653 34.44 17.22 34.44C19.4814 34.44 21.7206 33.9946 23.8098 33.1292C25.899 32.2638 27.7974 30.9954 29.3964 29.3964C30.9954 27.7974 32.2638 25.899 33.1292 23.8098C33.9946 21.7206 34.44 19.4814 34.44 17.22C34.44 12.6531 32.6259 8.27332 29.3967 5.04397C26.1676 1.81463 21.7879 0.000265235 17.221 2.90387e-08Z" fill="url(#paint0_linear_6130_667)"/>
<path d="M14.7285 22.174L15.1065 22.097C15.213 22.0764 15.309 22.0194 15.378 21.9357C15.447 21.852 15.4848 21.7469 15.4848 21.6385C15.4848 21.53 15.447 21.4249 15.378 21.3413C15.309 21.2576 15.213 21.2006 15.1065 21.18L14.7285 21.103C14.262 21.0083 13.8338 20.7782 13.4973 20.4416C13.1608 20.1049 12.9309 19.6765 12.8365 19.21L12.7595 18.832C12.7389 18.7255 12.6819 18.6295 12.5982 18.5605C12.5145 18.4914 12.4095 18.4537 12.301 18.4537C12.1925 18.4537 12.0874 18.4914 12.0038 18.5605C11.9201 18.6295 11.8631 18.7255 11.8425 18.832L11.7655 19.21C11.671 19.6764 11.4411 20.1046 11.1046 20.4411C10.7681 20.7776 10.3399 21.0075 9.87349 21.102L9.49549 21.179C9.389 21.1996 9.293 21.2566 9.22397 21.3403C9.15494 21.4239 9.11719 21.529 9.11719 21.6375C9.11719 21.7459 9.15494 21.851 9.22397 21.9347C9.293 22.0184 9.389 22.0754 9.49549 22.096L9.87349 22.173C10.3398 22.2674 10.7679 22.4971 11.1044 22.8334C11.4409 23.1698 11.6708 23.5978 11.7655 24.064L11.8425 24.442C11.8631 24.5485 11.9201 24.6445 12.0038 24.7135C12.0874 24.7825 12.1925 24.8203 12.301 24.8203C12.4095 24.8203 12.5145 24.7825 12.5982 24.7135C12.6819 24.6445 12.7389 24.5485 12.7595 24.442L12.8365 24.064C12.9313 23.5978 13.1613 23.1699 13.4978 22.8336C13.8342 22.4973 14.2623 22.2685 14.7285 22.174Z" fill="white"/>
<path d="M23.8923 15.326L25.2843 15.044C25.4231 15.0156 25.5479 14.9401 25.6375 14.8303C25.727 14.7205 25.776 14.5832 25.776 14.4415C25.776 14.2998 25.727 14.1625 25.6375 14.0527C25.5479 13.9429 25.4231 13.8674 25.2843 13.839L23.8923 13.559C23.2219 13.423 22.6064 13.0924 22.1226 12.6087C21.6389 12.125 21.3084 11.5095 21.1723 10.839L20.8903 9.44701C20.8606 9.31001 20.7848 9.18732 20.6756 9.09934C20.5665 9.01136 20.4305 8.96338 20.2903 8.96338C20.1501 8.96338 20.0142 9.01136 19.905 9.09934C19.7958 9.18732 19.7201 9.31001 19.6903 9.44701L19.4083 10.839C19.2724 11.5095 18.9419 12.1251 18.4582 12.6088C17.9744 13.0926 17.3588 13.4231 16.6883 13.559L15.2963 13.841C15.1575 13.8694 15.0328 13.9449 14.9432 14.0547C14.8536 14.1645 14.8047 14.3018 14.8047 14.4435C14.8047 14.5852 14.8536 14.7225 14.9432 14.8323C15.0328 14.9421 15.1575 15.0176 15.2963 15.046L16.6883 15.328C17.3589 15.4638 17.9745 15.7943 18.4583 16.278C18.9421 16.7618 19.2725 17.3775 19.4083 18.048L19.6903 19.44C19.7201 19.577 19.7958 19.6997 19.905 19.7877C20.0142 19.8757 20.1501 19.9236 20.2903 19.9236C20.4305 19.9236 20.5665 19.8757 20.6756 19.7877C20.7848 19.6997 20.8606 19.577 20.8903 19.44L21.1723 18.048C21.3084 17.3776 21.6389 16.7621 22.1226 16.2783C22.6064 15.7946 23.2219 15.4641 23.8923 15.328V15.326Z" fill="white"/>
<path d="M45.6914 22.442V12.902H48.3014V14.27C48.5423 13.8221 48.8882 13.4392 49.3094 13.154C49.8079 12.8173 50.4002 12.6472 51.0014 12.668C51.6166 12.6312 52.2286 12.7818 52.7564 13.1C53.1711 13.3888 53.4881 13.7969 53.6654 14.27C53.9251 13.7936 54.3113 13.3981 54.7814 13.127C55.3213 12.8115 55.9383 12.6526 56.5634 12.668C56.9959 12.6383 57.4298 12.7008 57.8364 12.8515C58.2429 13.0022 58.6127 13.2376 58.9214 13.542C59.5121 14.2742 59.8018 15.2039 59.7314 16.142V22.442H56.9594V16.826C57.0021 16.3281 56.8923 15.829 56.6444 15.395C56.5218 15.2475 56.3652 15.1319 56.188 15.0582C56.0109 14.9845 55.8185 14.9549 55.6274 14.972C55.3559 14.9707 55.09 15.0489 54.8624 15.197C54.6214 15.3549 54.4284 15.576 54.3044 15.836C54.1592 16.1454 54.0883 16.4844 54.0974 16.826V22.442H51.3254V16.826C51.3681 16.3281 51.2583 15.829 51.0104 15.395C50.8848 15.2462 50.7251 15.13 50.5449 15.0563C50.3647 14.9827 50.1693 14.9537 49.9754 14.972C49.7066 14.9699 49.4433 15.0483 49.2194 15.197C48.9826 15.3572 48.793 15.5778 48.6704 15.836C48.5252 16.1454 48.4543 16.4844 48.4634 16.826V22.442H45.6914ZM64.2314 22.676C63.6221 22.6922 63.0185 22.5546 62.4764 22.276C62.0084 22.0297 61.6233 21.651 61.3694 21.187C61.1154 20.7156 60.9854 20.1874 60.9914 19.652C60.9655 19.2469 61.0304 18.8411 61.1815 18.4642C61.3325 18.0874 61.5658 17.7491 61.8644 17.474C62.6245 16.9144 63.5602 16.6461 64.5014 16.718H67.2014V16.318C67.2257 16.1026 67.2015 15.8844 67.1306 15.6796C67.0596 15.4747 66.9438 15.2883 66.7914 15.134C66.4645 14.9005 66.0674 14.7862 65.6664 14.81C65.3178 14.7858 64.9692 14.8574 64.6584 15.017C64.5481 15.0919 64.4577 15.1924 64.395 15.31C64.3323 15.4276 64.2991 15.5587 64.2984 15.692H61.5314C61.5607 15.1331 61.7514 14.5947 62.0804 14.142C62.4462 13.6582 62.9382 13.2845 63.5024 13.062C64.2209 12.7782 64.9892 12.6422 65.7614 12.662C66.5166 12.6472 67.2679 12.7754 67.9754 13.04C68.5889 13.2736 69.11 13.7 69.4604 14.255C69.8468 14.9386 70.0309 15.7178 69.9914 16.502V20.012C69.9914 20.516 70.0034 20.957 70.0274 21.335C70.0514 21.713 70.0874 22.082 70.1354 22.442H67.4914C67.4794 22.238 67.4644 22.058 67.4464 21.902C67.4267 21.7107 67.4176 21.5184 67.4194 21.326C67.0995 21.7357 66.6886 22.0654 66.2194 22.289C65.5957 22.5704 64.9151 22.7029 64.2314 22.676ZM65.1314 20.714C65.4963 20.7201 65.858 20.6463 66.1914 20.498C66.4988 20.3593 66.7568 20.1305 66.9314 19.842C67.1135 19.5407 67.2071 19.1941 67.2014 18.842V18.442H65.0414C64.8756 18.4286 64.7088 18.4505 64.5521 18.5064C64.3954 18.5623 64.2524 18.6507 64.1324 18.766C63.9404 18.9638 63.8329 19.2284 63.8324 19.504C63.8186 19.8225 63.9257 20.1344 64.1324 20.377C64.2656 20.5007 64.4235 20.5947 64.5957 20.6528C64.7679 20.7109 64.9505 20.7318 65.1314 20.714ZM75.8414 26.276C75.0015 26.3059 74.163 26.1839 73.3664 25.916C72.8113 25.7258 72.336 25.3551 72.0164 24.863C71.7257 24.373 71.556 23.8207 71.5214 23.252H74.3474C74.4218 23.4902 74.5622 23.7024 74.7524 23.864C75.069 24.0879 75.4556 24.1901 75.8414 24.152C76.4277 24.1939 77.0085 24.0156 77.4704 23.652C77.668 23.4442 77.8191 23.1967 77.9137 22.9261C78.0084 22.6554 78.0444 22.3677 78.0194 22.082V21.056C77.7114 21.51 77.2934 21.8784 76.8044 22.127C76.3281 22.3707 75.8005 22.4972 75.2654 22.496C74.5071 22.5137 73.7579 22.3272 73.0964 21.956C72.4661 21.5827 71.9664 21.0239 71.6654 20.356C71.3034 19.5097 71.1327 18.5939 71.1654 17.674V17.314C71.1402 16.4384 71.311 15.5681 71.6654 14.767C71.9653 14.11 72.4623 13.5627 73.0874 13.201C73.7568 12.8342 74.5113 12.651 75.2744 12.67C75.9284 12.6464 76.5753 12.8121 77.1374 13.147C77.58 13.4115 77.9581 13.7712 78.2444 14.2V12.9H80.7914V21.812C80.8378 22.4231 80.7549 23.037 80.5481 23.6139C80.3414 24.1907 80.0154 24.7176 79.5914 25.16C78.5264 25.9908 77.1873 26.3893 75.8414 26.276ZM75.9314 20.21C76.3023 20.2165 76.6682 20.124 76.9914 19.942C77.309 19.7563 77.5678 19.485 77.7384 19.159C77.9333 18.7836 78.03 18.3649 78.0194 17.942V17.042C78.0336 16.6426 77.9371 16.247 77.7404 15.899C77.5614 15.6007 77.3027 15.3582 76.9934 15.199C76.6644 15.0331 76.2999 14.9497 75.9314 14.956C75.6719 14.9478 75.4136 14.9958 75.1744 15.0968C74.9351 15.1978 74.7206 15.3493 74.5454 15.541C74.1483 16.0428 73.9555 16.6761 74.0054 17.314V17.674C73.9583 18.3492 74.1529 19.0191 74.5544 19.564C74.7195 19.7695 74.9295 19.9345 75.1681 20.0465C75.4068 20.1584 75.6678 20.2144 75.9314 20.21ZM82.5914 22.442V12.902H85.3634V22.442H82.5914ZM83.9774 12.002C83.5396 12.0307 83.1083 11.8851 82.7774 11.597C82.6381 11.4639 82.5284 11.303 82.4555 11.1246C82.3826 10.9463 82.3482 10.7546 82.3544 10.562C82.3482 10.3695 82.3826 10.1778 82.4555 9.99941C82.5284 9.82107 82.6381 9.6601 82.7774 9.52703C83.1083 9.23894 83.5396 9.09335 83.9774 9.12203C84.4152 9.09335 84.8465 9.23894 85.1774 9.52703C85.3167 9.6601 85.4264 9.82107 85.4993 9.99941C85.5722 10.1778 85.6066 10.3695 85.6004 10.562C85.6066 10.7546 85.5722 10.9463 85.4993 11.1246C85.4264 11.303 85.3167 11.4639 85.1774 11.597C84.8465 11.8851 84.4152 12.0307 83.9774 12.002ZM91.6634 22.676C90.7996 22.6913 89.9439 22.5065 89.1634 22.136C88.4341 21.7786 87.8313 21.2072 87.4354 20.498C86.9891 19.657 86.7719 18.7135 86.8054 17.762V17.402C86.7779 16.4993 87.0056 15.6071 87.4624 14.828C87.8851 14.1341 88.497 13.5752 89.2264 13.217C89.9854 12.8462 90.8207 12.6582 91.6654 12.668C92.4972 12.6407 93.3236 12.8103 94.0774 13.163C94.6872 13.4589 95.204 13.9165 95.5714 14.486C95.9196 15.0388 96.1239 15.67 96.1654 16.322H93.3014C93.2448 15.9414 93.0645 15.59 92.7884 15.322C92.4708 15.0679 92.0692 14.9426 91.6634 14.971C91.3003 14.9654 90.9425 15.0587 90.6284 15.241C90.3141 15.4301 90.0634 15.7086 89.9084 16.041C89.7195 16.4684 89.6303 16.9331 89.6474 17.4V17.76C89.6311 18.2581 89.7169 18.7543 89.8994 19.218C90.0391 19.5683 90.2836 19.8669 90.5994 20.073C90.9199 20.2646 91.2881 20.3613 91.6614 20.352C92.0455 20.3633 92.4224 20.2462 92.7324 20.019C93.0422 19.7704 93.2451 19.4125 93.2994 19.019H96.1614C96.1297 19.7146 95.9054 20.3876 95.5134 20.963C95.1223 21.5223 94.5841 21.9626 93.9584 22.235C93.2333 22.5431 92.451 22.6935 91.6634 22.676ZM100.591 22.622C99.9776 22.6405 99.3687 22.5076 98.8184 22.235C98.3533 21.9971 97.9684 21.6278 97.7114 21.173C97.4555 20.7075 97.3252 20.1832 97.3334 19.652C97.2977 19.2679 97.3552 18.8808 97.5009 18.5236C97.6466 18.1664 97.8762 17.8496 98.1704 17.6C98.8817 17.137 99.7234 16.9161 100.57 16.97H103.67V16.322C103.705 16.0171 103.674 15.7083 103.58 15.4164C103.485 15.1245 103.329 14.8563 103.121 14.63C102.645 14.2839 102.062 14.1181 101.474 14.162C100.947 14.1179 100.42 14.2543 99.9804 14.549C99.84 14.6528 99.7215 14.7834 99.6319 14.9332C99.5423 15.0831 99.4834 15.2492 99.4584 15.422H97.8734C97.9021 14.9201 98.0828 14.4388 98.3914 14.042C98.7304 13.6194 99.1697 13.2884 99.6694 13.079C100.267 12.8277 100.911 12.705 101.559 12.719C102.23 12.7033 102.898 12.8227 103.521 13.07C104.055 13.2887 104.504 13.6747 104.799 14.17C105.125 14.7741 105.281 15.4554 105.249 16.141V20.011C105.249 20.515 105.252 20.956 105.258 21.334C105.265 21.7047 105.294 22.0747 105.343 22.442H103.957C103.921 22.166 103.897 21.905 103.885 21.659C103.873 21.413 103.867 21.134 103.867 20.822C103.588 21.355 103.164 21.798 102.643 22.1C102.022 22.4632 101.311 22.6441 100.591 22.622ZM100.933 21.182C101.406 21.1882 101.875 21.0963 102.31 20.912C102.708 20.7454 103.051 20.4711 103.3 20.12C103.555 19.7435 103.684 19.2963 103.669 18.842V18.194H100.843C100.356 18.1671 99.8728 18.2895 99.4574 18.545C99.2872 18.6721 99.152 18.8404 99.0646 19.034C98.9771 19.2276 98.9402 19.4403 98.9574 19.652C98.9516 19.8591 98.9913 20.0649 99.0737 20.255C99.1562 20.4451 99.2793 20.6147 99.4344 20.752C99.8646 21.0741 100.398 21.2271 100.933 21.182ZM108.043 22.442V12.902H109.627V22.442H108.043ZM108.835 11.642C108.692 11.6465 108.55 11.6217 108.417 11.5691C108.284 11.5164 108.163 11.4371 108.061 11.336C107.96 11.2347 107.881 11.1138 107.828 10.9807C107.776 10.8476 107.751 10.7051 107.755 10.562C107.751 10.419 107.776 10.2765 107.828 10.1434C107.881 10.0103 107.96 9.88934 108.061 9.78802C108.163 9.68691 108.284 9.6076 108.417 9.55498C108.55 9.50235 108.692 9.47753 108.835 9.48202C108.978 9.47753 109.121 9.50235 109.254 9.55498C109.387 9.6076 109.508 9.68691 109.609 9.78802C109.711 9.88934 109.79 10.0103 109.842 10.1434C109.895 10.2765 109.92 10.419 109.915 10.562C109.92 10.7051 109.895 10.8476 109.842 10.9807C109.79 11.1138 109.711 11.2347 109.609 11.336C109.508 11.4371 109.387 11.5164 109.254 11.5691C109.121 11.6217 108.978 11.6465 108.835 11.642Z" fill="#0A2C4E"/>
</g>
<defs>
<linearGradient id="paint0_linear_6130_667" x1="2.13385e-07" y1="7.02576" x2="28.8952" y2="32.5114" gradientUnits="userSpaceOnUse">
<stop stop-color="#82E2F4"/>
<stop offset="0.502" stop-color="#8A8AED"/>
<stop offset="1" stop-color="#6977DE"/>
</linearGradient>
<clipPath id="clip0_6130_667">
<rect width="109.917" height="34.441" fill="white"/>
</clipPath>
</defs>
</svg>

