<svg fill="none" height="91" viewBox="0 0 96 91" width="96" xmlns="http://www.w3.org/2000/svg" xmlns:xlink="http://www.w3.org/1999/xlink"><linearGradient id="a"><stop offset="0" stop-color="#82e2f4"/><stop offset=".502" stop-color="#8a8aed"/><stop offset="1" stop-color="#6977de"/></linearGradient><linearGradient id="b" gradientUnits="userSpaceOnUse" x1=".5" x2="27.5269" xlink:href="#a" y1="25.0018" y2="70.868"/><linearGradient id="c" gradientUnits="userSpaceOnUse" x1="19.5313" x2="75.1397" xlink:href="#a" y1="38.3157" y2="93.132"/><linearGradient id="d" gradientUnits="userSpaceOnUse" x1="46.1665" x2="49.5351" xlink:href="#a" y1="89.7801" y2="90.8022"/><linearGradient id="e" gradientUnits="userSpaceOnUse" x1="31.5551" x2="34.5184" xlink:href="#a" y1="49.9491" y2="49.0183"/><linearGradient id="f" gradientUnits="userSpaceOnUse" x1="1.36719" x2="20.0971" xlink:href="#a" y1="22.558" y2="43.606"/><linearGradient id="g" gradientUnits="userSpaceOnUse" x1="63.7578" x2="80.2894" xlink:href="#a" y1="24.3614" y2="45.0354"/><linearGradient id="h" gradientUnits="userSpaceOnUse" x1="28.125" x2="45.7553" xlink:href="#a" y1="22.4758" y2="48.3547"/><linearGradient id="i" gradientUnits="userSpaceOnUse" x1="66.1484" x2="90.7725" xlink:href="#a" y1="8.31808" y2="30.0366"/><linearGradient id="j" gradientUnits="userSpaceOnUse" x1="4.72656" x2="25.3252" xlink:href="#a" y1="49.9719" y2="68.1403"/><linearGradient id="k" gradientUnits="userSpaceOnUse" x1="21.5078" x2="33.9415" xlink:href="#a" y1="3.3572" y2="14.3233"/><path d="m13.2394 54.0847-12.648844-14.1283-.090556-1.2729 13.7737-20.6712.8669-.464h55.6589v2.0838h-55.1013l-13.01671 19.5358 12.11061 13.5269z" fill="url(#b)"/><path d="m45.996 90.6663-26.4648-29.5487 1.5527-1.3899 25.6885 28.6818 44.081-49.2416-8.7418-13.1129 1.7338-1.1558 9.1895 13.7843-.0906 1.2729-45.3956 50.7099z" fill="url(#c)"/><path d="m45.7656 89.6389 17.8483-50.6957 1.9653.6919-17.8484 50.6957z" fill="url(#d)"/><path d="m27.9141 39.6072 1.9652-.6919 17.8483 50.6957-1.9652.6919z" fill="url(#e)"/><path d="m28.9125 40.309h-27.54531v-2.0838h25.59991l-12.6946-19.0616 1.7348-1.1548 13.7726 20.6809z" fill="url(#f)"/><path d="m92.1726 40.3136h-27.5479l-.8669-1.6199 12.2734-18.4205 1.7338 1.1559-11.1938 16.8007h25.6014z" fill="url(#g)"/><path d="m64.6212 40.309h-35.7077l-.7885-1.7226 17.8538-20.6809h1.5771l17.8538 20.6809zm-33.4315-2.0838h31.1553l-15.5776-18.0446z" fill="url(#h)"/><path d="m81.8004 31.6802h-1.9546l-3.6996-9.9978-9.9978-3.6996v-1.9546l9.9978-3.6991 3.6996-9.99829h1.9546l3.6996 9.99829 9.9978 3.6991v1.9546l-9.9978 3.6996zm-12.2877-14.6747 7.8062 2.8886.6156.6156 2.8886 7.8067 2.8886-7.8067.6156-.6156 7.8062-2.8886-7.8062-2.8881-.6156-.6156-2.8886-7.80719-2.8886 7.80719-.6156.6156z" fill="url(#i)"/><path d="m17.9798 69.5148h-1.9546l-3.0514-8.2467-8.24724-3.0515v-1.9535l8.24724-3.0525 3.0514-8.2472h1.9546l3.0514 8.2472 8.2473 3.0525v1.9535l-8.2473 3.0515zm-9.88892-12.275 6.05552 2.2405.6156.6156 2.2405 6.0551 2.2405-6.0551.6156-.6156 6.0556-2.2405-6.0556-2.2415-.6156-.6156-2.2405-6.055-2.2405 6.055-.6156.6156z" fill="url(#j)"/><path d="m29.8944 15.1536h-1.9546l-1.7368-4.6951-4.6952-1.73739v-1.95459l4.6952-1.73735 1.7368-4.695186h1.9546l1.7374 4.695186 4.6952 1.73735v1.95459l-4.6952 1.73739zm-5.0228-7.40978 2.504.92642.6156.61557.9259 2.50349.9265-2.50349.6155-.61557 2.5041-.92642-2.5041-.92642-.6155-.61558-.9265-2.50352-.9259 2.50352-.6156.61558z" fill="url(#k)"/></svg>